<?xml version="1.0" encoding="UTF-8" standalone="no"?>
<!-- Created with Inkscape (http://www.inkscape.org/) -->

<svg
   width="204.02238mm"
   height="165.66435mm"
   viewBox="0 0 204.02238 165.66435"
   version="1.1"
   id="svg5"
   inkscape:version="1.1.1 (3bf5ae0d25, 2021-09-20)"
   sodipodi:docname="logo.svg"
   xmlns:inkscape="http://www.inkscape.org/namespaces/inkscape"
   xmlns:sodipodi="http://sodipodi.sourceforge.net/DTD/sodipodi-0.dtd"
   xmlns="http://www.w3.org/2000/svg"
   xmlns:svg="http://www.w3.org/2000/svg">
  <sodipodi:namedview
     id="namedview7"
     pagecolor="#505050"
     bordercolor="#eeeeee"
     borderopacity="1"
     inkscape:pageshadow="0"
     inkscape:pageopacity="0"
     inkscape:pagecheckerboard="0"
     inkscape:document-units="mm"
     showgrid="false"
     inkscape:zoom="0.69130191"
     inkscape:cx="669.02752"
     inkscape:cy="300.15829"
     inkscape:window-width="1280"
     inkscape:window-height="961"
     inkscape:window-x="1912"
     inkscape:window-y="-8"
     inkscape:window-maximized="1"
     inkscape:current-layer="layer1"
     inkscape:snap-grids="true"
     fit-margin-top="0"
     fit-margin-left="0"
     fit-margin-right="0"
     fit-margin-bottom="0" />
  <defs
     id="defs2" />
  <g
     inkscape:label="Calque 1"
     inkscape:groupmode="layer"
     id="layer1"
     transform="translate(-3.0487328,-43.948345)">
    <path
       style="fill:#000000;stroke-width:0.696322"
       d="m 42.357838,208.04597 c 0.262614,-0.86169 1.077519,-3.79022 1.810884,-6.5078 l 1.333401,-4.9411 -1.760704,-3.41478 c -0.968394,-1.87812 -2.526261,-4.66816 -3.461936,-6.20007 -4.094279,-6.70323 -7.99063,-18.19639 -7.978666,-23.53484 0.01873,-8.40083 6.083728,-30.86795 12.255835,-45.40106 l 2.365792,-5.57057 -6.104452,-6.2669 C 34.359311,99.578292 28.232139,91.783416 24.944967,86.015506 c -1.091302,-1.91487 -2.203411,-3.63828 -2.471344,-3.82976 -2.004832,-1.43284 -19.4248902,-33.92856 -19.4248902,-36.23559 0,-0.77524 0.4975999,-1.60047 1.1057746,-1.83385 1.2119537,-0.46507 2.2931881,-0.15952 12.2488176,3.46129 10.715386,3.89713 32.564587,15.65632 32.605569,17.54825 0.0081,0.38298 2.434995,2.26305 5.392662,4.17794 6.456157,4.17991 16.321681,12.32921 20.482788,16.91958 l 3.019023,3.33046 6.2669,-0.87417 c 9.258509,-1.29147 41.589303,-2.00357 46.179313,-1.01709 l 3.70378,0.79598 15.7933,-7.58344 c 8.68629,-4.17089 20.29008,-9.3964 25.78615,-11.61226 5.4961,-2.21586 10.354,-4.39001 10.79548,-4.83143 1.53863,-1.5387 16.40962,-5.91398 20.12062,-5.9198 0.28725,-4.6e-4 0.52221,3.69002 0.52221,8.20107 v 8.20188 l -3.92395,5.89864 c -3.64402,5.47788 -7.53626,10.88767 -14.41611,20.037044 -1.52757,2.03146 -4.37124,5.13635 -6.31919,6.89974 -3.20511,2.90137 -10.59758,8.12216 -12.30804,8.69232 -0.37594,0.12534 0.41284,2.48061 1.75284,5.234 4.28803,8.81085 13.01173,41.12574 17.06608,63.21695 0.87473,4.76642 2.82932,20.74644 2.82932,23.13193 v 1.58751 H 116.81622 41.880346 Z m 48.986346,-35.01586 c 2.564956,-0.58858 6.230285,-1.92119 8.145172,-2.96131 l 3.481594,-1.89117 0.19108,-11.68989 0.19109,-11.68987 -5.761651,0.2025 -5.761623,0.20253 -0.19581,8.13493 -0.195798,8.13495 -2.589501,0.88145 c -3.692207,1.25678 -9.723544,1.12935 -13.420921,-0.28356 -7.950449,-3.03815 -12.26309,-12.49215 -9.729089,-21.32767 3.144984,-10.96595 18.026547,-15.28713 27.56706,-8.0047 l 3.145638,2.40113 4.195365,-3.67229 4.19538,-3.6723 -3.19933,-2.91706 c -5.24743,-4.78454 -9.576059,-6.11673 -19.906977,-6.1267 -8.708777,-0.008 -8.760958,0.001 -14.036487,2.60918 -6.464983,3.19584 -11.560408,8.43584 -13.876815,14.27053 -2.249917,5.66721 -2.255387,15.55295 -0.01167,21.20182 2.834069,7.13534 9.521105,13.13282 17.856518,16.01514 4.432466,1.53271 13.468027,1.61628 19.716811,0.18238 z m 59.187336,0 c 2.56504,-0.58858 6.23037,-1.92119 8.1452,-2.96131 l 3.4816,-1.89117 0.19107,-11.68989 0.19108,-11.68987 -5.76164,0.2025 -5.76164,0.20253 -0.19578,8.13493 -0.19578,8.13495 -2.58948,0.88145 c -3.69219,1.25678 -9.72362,1.12935 -13.42098,-0.28356 -7.95044,-3.03815 -12.26309,-12.49215 -9.72913,-21.32767 3.14501,-10.96595 18.02661,-15.28713 27.56711,-8.0047 l 3.1457,2.40113 4.19529,-3.67229 4.19543,-3.6723 -3.19935,-2.91706 c -5.24741,-4.78454 -9.57601,-6.11673 -19.90702,-6.1267 -8.70874,-0.008 -8.7609,0.001 -14.03648,2.60918 -6.46495,3.19584 -11.56035,8.43584 -13.87679,14.27053 -2.24989,5.66721 -2.25533,15.55295 -0.012,21.20182 2.83404,7.13534 9.52104,13.13282 17.85649,16.01514 4.43244,1.53271 13.46807,1.61628 19.71683,0.18238 z"
       id="path836" />
    <path
       style="fill:#ffffff;stroke:#fffeff;stroke-width:0.732674;stroke-linejoin:round"
       d="m 78.938462,173.94341 c -2.827386,-0.13014 -5.539395,-0.55322 -7.236323,-1.12888 -4.085845,-1.38607 -8.342403,-3.91456 -11.372309,-6.75539 -3.322059,-3.11477 -5.632141,-6.57364 -6.852589,-10.26035 -1.376897,-4.15929 -1.71921,-10.51583 -0.843931,-15.67105 0.722551,-4.25571 2.443206,-7.85086 5.401424,-11.28581 2.648389,-3.07518 5.786051,-5.45967 9.933963,-7.54939 3.369689,-1.69765 4.652836,-2.13986 6.812627,-2.34783 1.404532,-0.13524 9.81371,-0.14029 11.78025,-0.007 5.257328,0.35614 8.619214,1.33321 11.743666,3.41308 1.283809,0.8546 2.31589,1.70504 4.67844,3.85514 1.62321,1.47732 1.72419,1.58882 1.57063,1.73513 -1.13863,1.08471 -8.112114,7.06742 -8.198987,7.03409 -0.0645,-0.0247 -0.995606,-0.70827 -2.069214,-1.51897 -1.07361,-0.8107 -2.273094,-1.66126 -2.665523,-1.89014 -6.642909,-3.8745 -15.298471,-3.11763 -21.224114,1.85589 -2.073786,1.74057 -3.7957,4.30738 -4.601656,6.85955 -2.40392,7.61237 0.378028,16.09991 6.651934,20.29455 2.704706,1.80832 5.964887,2.65922 10.188705,2.65922 2.902423,0 4.539651,-0.26346 7.151865,-1.15087 0.914811,-0.31077 1.672992,-0.57724 1.684852,-0.59215 0.01182,-0.0149 0.09307,-3.321 0.18056,-7.34686 0.08744,-4.02587 0.183102,-7.66997 0.212558,-8.09801 l 0.05353,-0.77825 1.260135,-0.0596 c 3.028043,-0.14312 10.031035,-0.36145 10.078255,-0.31421 0.0532,0.0532 -0.2074,17.9167 -0.31165,21.35731 l -0.058,1.91704 -2.16694,1.16072 c -2.381716,1.27571 -2.946737,1.53589 -4.972395,2.28957 -3.904432,1.45273 -7.271342,2.09251 -12.264697,2.33051 -2.141084,0.10206 -2.176763,0.102 -4.544946,-0.007 z"
       id="path1366" />
    <path
       style="fill:#ffffff;stroke:#fffeff;stroke-width:0.732674;stroke-linejoin:round"
       d="m 138.21409,173.94796 c -5.10404,-0.22393 -8.57026,-1.19641 -12.77917,-3.58532 -5.89736,-3.34723 -10.37678,-8.25661 -12.46402,-13.66022 -2.22337,-5.75614 -2.1644,-15.61645 0.1269,-21.23071 1.88782,-4.62569 5.481,-8.82661 10.28586,-12.02564 2.1853,-1.45497 5.85002,-3.31707 7.74988,-3.93775 1.84457,-0.60264 2.12343,-0.62239 8.75502,-0.62034 5.11693,0.002 6.2521,0.0273 7.51111,0.17011 2.01165,0.22821 2.97567,0.39851 4.48846,0.79296 2.81758,0.7347 5.19848,1.98811 7.66321,4.03432 1.12926,0.93742 4.30802,3.84362 4.29947,3.93074 -0.003,0.0353 -1.86208,1.68246 -4.13026,3.66033 l -4.12406,3.59612 -1.80403,-1.37922 c -0.99219,-0.75856 -2.17982,-1.61589 -2.63919,-1.90516 -7.10688,-4.4751 -17.11127,-3.22845 -22.82819,2.84463 -2.09401,2.22446 -3.35643,4.82434 -3.94998,8.13491 -0.14221,0.79321 -0.17764,1.45373 -0.17393,3.24452 0.004,2.07079 0.0255,2.34512 0.26401,3.4701 1.0317,4.85883 3.49371,8.64749 7.24248,11.14513 2.55892,1.70494 5.34264,2.46615 9.42878,2.57835 3.19718,0.0878 5.08491,-0.18465 7.93766,-1.14558 l 1.53094,-0.51568 0.0645,-0.94875 c 0.0358,-0.52181 0.13721,-4.17804 0.22604,-8.12497 0.0892,-3.94692 0.16961,-7.18555 0.17955,-7.19695 0.0327,-0.0371 11.35787,-0.43078 11.39069,-0.3959 0.0288,0.0301 -0.28553,19.92861 -0.35218,22.32612 l -0.0269,0.95491 -1.29178,0.70358 c -3.15404,1.71799 -4.87376,2.47975 -7.55893,3.34839 -3.17817,1.0281 -6.28368,1.53767 -10.60156,1.73955 -2.13771,0.1 -2.08294,0.1 -4.42067,-0.003 z"
       id="path1405" />
    <path
       style="fill:#161650;stroke:none;stroke-width:2.93071;stroke-linejoin:round"
       d="m 42.291882,209.19329 c 0,-0.0886 0.76999,-2.9447 1.711086,-6.34689 l 1.711087,-6.1858 -1.376799,-2.743 c -0.75723,-1.50864 -2.365845,-4.46528 -3.574684,-6.57031 -4.079103,-7.10315 -6.962811,-14.83005 -8.070301,-21.62435 -1.089585,-6.6845 4.885589,-30.35235 11.930612,-47.2575 1.243978,-2.98505 2.261776,-5.64983 2.261776,-5.92173 0,-0.27191 -2.396367,-2.96555 -5.325266,-5.98587 C 35.651229,100.46525 30.775386,94.567824 27.532301,89.591786 26.354507,87.784635 24.64537,85.186564 23.734218,83.818298 20.645047,79.179297 17.133706,73.313913 13.76731,67.169458 9.509982,59.398841 3.2532215,46.752388 3.2532215,45.917895 c 0,-0.350288 0.3500347,-0.953665 0.7778549,-1.340837 0.75984,-0.687644 0.9171824,-0.657799 6.7934916,1.288655 7.110835,2.355374 13.502486,5.137642 22.66448,9.865786 8.461199,4.366496 13.173125,7.285924 15.547962,9.633254 1.026486,1.014598 3.674748,3.072501 5.885026,4.573114 6.228995,4.229026 13.923722,10.561609 18.67772,15.371329 l 4.325273,4.375964 5.051659,-0.635134 c 7.980433,-1.003364 18.891232,-1.490711 33.373852,-1.490687 10.47966,1.9e-5 13.85385,0.120838 15.50066,0.555046 l 2.10499,0.555022 3.44463,-1.616348 c 1.89449,-0.888989 7.49195,-3.544938 12.43869,-5.902108 9.27539,-4.419708 20.44189,-9.42839 29.47041,-13.218721 2.84176,-1.193035 6.02799,-2.654445 7.08055,-3.247577 2.51746,-1.418688 7.75109,-3.234484 13.20421,-4.58116 7.09758,-1.752759 6.7554,-1.748314 7.02938,-0.09129 0.1288,0.778954 0.23603,4.441719 0.23831,8.13948 l 0.004,6.7232 -4.12974,6.09832 c -8.02681,11.853267 -14.14249,19.982227 -18.23361,24.236197 -3.19041,3.31753 -9.23305,8.09403 -12.75146,10.07968 -1.10559,0.62398 -2.01019,1.30682 -2.01019,1.51743 0,0.21061 0.87529,2.44994 1.94501,4.97628 4.18879,9.89231 9.7403,29.31737 14.47181,50.63796 2.53442,11.42009 4.46901,23.82003 5.23979,33.58473 l 0.26434,3.3489 h -74.68529 c -41.076991,0 -74.685401,-0.0725 -74.685401,-0.16109 z m 45.513145,-35.06891 c 3.939444,-0.49397 9.293559,-2.20252 12.853483,-4.10168 l 2.67909,-1.42927 0.10124,-12.19534 0.10124,-12.19534 -5.842138,0.27813 c -3.213159,0.15298 -5.971269,0.35499 -6.129147,0.44892 -0.157879,0.0939 -0.287749,1.58152 -0.288608,3.30574 -7.89e-4,1.72422 -0.11317,5.32361 -0.24961,7.99865 l -0.248057,4.8637 -1.759729,0.62011 c -2.46091,0.86719 -7.538339,1.14822 -10.438099,0.57772 -8.202624,-1.61377 -13.313028,-8.55664 -12.878194,-17.49599 0.20058,-4.12345 1.316501,-6.83938 3.980272,-9.68716 3.267776,-3.49352 7.746297,-5.36644 12.832234,-5.36644 4.294067,0 7.55634,1.29356 12.474325,4.94631 1.165103,0.86536 1.270107,0.87866 2.188002,0.27723 2.007283,-1.31522 7.692149,-6.50771 7.801029,-7.1253 0.14909,-0.84597 -4.983781,-5.28408 -7.923186,-6.85077 -3.93848,-2.09918 -6.498023,-2.50472 -15.919823,-2.52232 l -8.420104,-0.0157 -2.487759,1.13136 c -7.430149,3.37899 -13.269173,8.40556 -15.817654,13.61673 -2.135854,4.36742 -2.682677,7.02638 -2.673512,12.99998 0.0094,6.09547 0.647209,9.23139 2.654756,13.05177 3.675803,6.99507 12.153284,13.32347 19.669345,14.68307 3.531438,0.63882 9.486312,0.7194 13.740776,0.18593 z m 63.729483,-0.90189 c 4.87333,-1.26156 10.74597,-4.06389 11.07275,-5.28374 0.1291,-0.48194 0.23707,-5.96475 0.23998,-12.18402 l 0.005,-11.30775 -6.02799,0.15621 c -3.31543,0.0859 -6.0711,0.19409 -6.12365,0.24037 -0.0526,0.0463 -0.2093,3.73287 -0.34815,8.19243 l -0.25254,8.10829 -2.13959,0.66272 c -3.26009,1.00975 -10.22791,0.87218 -13.14193,-0.25947 -2.41329,-0.93721 -5.94129,-3.89699 -7.40062,-6.20864 -2.39344,-3.79145 -3.2674,-10.34711 -1.94593,-14.59638 1.33237,-4.28466 5.02287,-8.03709 9.73765,-9.90125 1.80657,-0.71427 2.92996,-0.86649 6.40109,-0.86738 4.98485,-0.001 6.88881,0.62792 11.04045,3.64865 1.44116,1.04858 2.85171,1.85402 3.13446,1.78986 0.60903,-0.13816 8.5977,-7.17404 8.5977,-7.57223 0,-0.5077 -4.38395,-4.4568 -6.52141,-5.87461 -4.21255,-2.79414 -8.65195,-3.70138 -18.1121,-3.70138 -6.51338,0 -8.77502,0.42119 -12.58979,2.3446 -7.24294,3.65189 -12.71117,9.33706 -14.85931,15.44875 -1.96942,5.60346 -1.98008,14.52097 -0.0245,20.31458 1.63897,4.85476 5.96379,10.03241 11.26643,13.48811 5.68522,3.705 9.86526,4.7239 18.45047,4.49743 4.57125,-0.12059 6.51522,-0.35188 9.54096,-1.13515 z"
       id="path4648" />
    <path
       style="fill:#000055;stroke:none;stroke-width:2.93071;stroke-linejoin:round"
       d="m 72.814753,209.06736 c -16.577072,-0.0552 -30.140139,-0.2193 -30.140139,-0.36469 0,-0.14539 0.721748,-2.92668 1.603892,-6.18064 l 1.603882,-5.9163 -1.829695,-3.48102 c -7.544464,-14.35349 -8.570848,-16.70624 -10.450213,-23.95485 -0.797295,-3.07511 -0.910022,-4.19038 -0.728259,-7.20492 0.561293,-9.30918 5.659395,-27.83545 12.053727,-43.80272 1.076195,-2.68735 1.954386,-5.18468 1.951538,-5.54961 -0.0029,-0.36493 -2.425546,-3.24695 -5.383779,-6.40449 C 34.113972,98.329058 30.691692,94.015993 25.173993,85.638001 19.103956,76.421339 13.113258,65.936058 7.7998356,55.228698 2.066835,43.675821 2.1792934,43.243634 10.228659,45.894569 c 6.988563,2.301578 12.983119,4.867881 21.538092,9.220575 9.225225,4.693717 13.064515,7.011612 16.866236,10.182665 1.669711,1.392713 4.75812,3.756292 6.863148,5.252397 5.947669,4.227189 12.560894,9.683284 17.797033,14.683057 l 4.784151,4.568185 5.932347,-0.673881 c 12.727552,-1.445781 44.087844,-1.901833 48.440844,-0.704445 1.53782,0.423002 1.68728,0.366106 12.63017,-4.810458 10.69914,-5.061212 30.23056,-13.955448 30.64568,-13.955448 0.11165,0 3.59006,-1.536724 7.72987,-3.414946 7.34495,-3.332352 13.26365,-5.393666 19.32718,-6.731126 1.68271,-0.371155 3.13414,-0.51534 3.30908,-0.328732 0.17145,0.182824 0.4301,3.690879 0.57481,7.795681 l 0.26311,7.463271 -4.68919,6.889176 c -13.83572,20.32719 -19.47539,26.63821 -29.72479,33.26342 -1.52619,0.9865 -2.77481,2.04082 -2.77481,2.34293 0,0.30211 0.86199,2.70995 1.9156,5.35076 3.55676,8.91534 7.19919,20.90134 11.04768,36.35474 4.71661,18.93937 7.23916,33.07398 8.62353,48.31991 l 0.21719,2.39208 -44.29539,-0.0933 c -24.36244,-0.0513 -57.858393,-0.13849 -74.435477,-0.19369 z M 89.746486,173.9297 c 3.675799,-0.69729 7.580257,-2.04243 11.199074,-3.85824 l 2.58342,-1.29629 v -12.41958 -12.41958 l -2.39205,0.17375 c -1.315653,0.0956 -4.071323,0.27739 -6.123722,0.40405 -3.717571,0.22944 -3.731738,0.23414 -3.757863,1.2471 -0.24364,9.44697 -0.666097,15.08766 -1.152614,15.38975 -1.949118,1.21027 -9.630721,1.51251 -13.008462,0.51183 -4.417086,-1.3086 -7.580466,-4.08941 -9.670479,-8.50097 -1.158784,-2.44594 -1.211161,-2.76338 -1.211161,-7.34065 0,-4.25219 0.100276,-4.98783 0.901994,-6.61597 1.951976,-3.96419 6.350409,-7.52243 10.743503,-8.69125 0.931948,-0.24796 3.092104,-0.44693 4.800348,-0.44218 3.788669,0.0106 6.238398,0.84524 10.340869,3.52336 1.594277,1.04076 3.108647,1.88749 3.365266,1.88164 1.118808,-0.0255 8.695311,-6.83272 8.695311,-7.81239 0,-0.70831 -3.89302,-4.2256 -6.6702,-6.02639 -4.114549,-2.668 -6.060205,-3.05389 -16.517803,-3.27601 l -9.218281,-0.1958 -3.827417,1.96601 c -11.406942,5.85934 -16.576088,12.9144 -17.207446,23.48541 -0.57179,9.57352 1.53604,15.98912 7.130586,21.70336 4.226537,4.31698 9.714095,7.55649 14.593895,8.61532 3.412138,0.74038 12.485469,0.7369 16.403232,-0.006 z m 61.623974,-0.50103 c 3.76631,-1.02913 7.41137,-2.51938 9.66397,-3.95103 l 1.81802,-1.15538 v -12.07559 -12.07559 l -6.00421,0.25889 c -3.30239,0.14239 -6.08766,0.3423 -6.18961,0.44425 -0.10194,0.10195 -0.31518,3.73104 -0.47381,8.06463 -0.15859,4.3336 -0.37933,7.97024 -0.49053,8.08143 -0.54174,0.54178 -4.99401,1.24676 -7.90733,1.25209 -5.69023,0.0104 -8.85386,-1.26286 -12.49977,-5.03084 -4.19257,-4.33286 -5.47063,-12.58794 -2.81748,-18.19799 1.38048,-2.91904 4.30126,-5.78052 7.57927,-7.42549 2.52716,-1.26812 2.69582,-1.29782 7.37051,-1.29782 5.38473,0 6.73278,0.42485 11.35158,3.57767 1.28053,0.87406 2.58452,1.58921 2.89766,1.58921 0.97917,0 8.71465,-7.00854 8.71465,-7.8957 0,-0.53146 -4.80368,-4.75752 -6.94257,-6.10773 -0.80487,-0.50807 -2.80129,-1.38466 -4.43663,-1.94797 -2.75807,-0.95008 -3.54291,-1.03621 -10.84291,-1.18995 -8.72242,-0.1837 -10.7316,0.0701 -14.43968,1.82369 -5.03941,2.38326 -9.66273,6.13196 -12.55067,10.17629 -3.21837,4.50715 -4.37,8.68638 -4.37,15.85787 0,7.18398 1.14996,11.34692 4.38821,15.88482 4.02871,5.6458 10.92706,10.45667 16.66207,11.62005 1.1577,0.23486 2.44947,0.50621 2.87041,0.60299 0.42109,0.0968 3.69337,0.11423 7.27193,0.0388 5.04501,-0.10638 7.15117,-0.31337 9.37692,-0.92157 z"
       id="path4724" />
    <path
       style="fill:#161650;stroke:none;stroke-width:2.93071;stroke-linejoin:round"
       d="m 108.44063,208.98629 c -35.715328,-0.1133 -65.06811,-0.3372 -65.228405,-0.49755 -0.160293,-0.16035 0.402273,-2.88927 1.250147,-6.06427 l 1.541594,-5.77273 -4.566283,-8.96996 c -4.74825,-9.32743 -6.198868,-12.80362 -7.590502,-18.18957 -0.705435,-2.73018 -0.794425,-3.86356 -0.611554,-7.78796 0.414734,-8.89956 4.197528,-23.16137 10.851125,-40.91057 1.714362,-4.57327 2.772428,-7.93519 2.649968,-8.42011 -0.112116,-0.44396 -2.557489,-3.39065 -5.434158,-6.54818 C 32.358764,96.008337 27.395271,89.316199 19.969961,77.063221 13.027808,65.607522 4.4876753,49.027651 4.1210087,46.293944 3.9190809,44.788462 3.9254401,44.779641 5.2121702,44.780001 c 3.0222032,7.94e-4 15.7900888,5.066001 26.5545808,10.534481 8.798902,4.469936 12.062286,6.445355 17.031571,10.309706 2.210285,1.718813 6.343787,4.861766 9.185572,6.984341 5.374367,4.014205 10.424404,8.275122 16.576437,13.986216 l 3.609235,3.350543 5.069721,-0.562657 c 8.903161,-0.988113 22.503943,-1.439871 36.173123,-1.201508 7.15704,0.124802 13.52952,0.259493 14.16101,0.299305 0.69499,0.04381 2.81004,-0.693431 5.35831,-1.867744 2.31551,-1.067075 9.1186,-4.219649 15.1179,-7.005725 14.22617,-6.606595 34.88162,-15.665299 39.17545,-17.180819 6.16865,-2.177259 12.8696,-3.642167 12.87953,-2.815637 0.002,0.157876 0.1745,3.538638 0.38349,7.512801 l 0.37997,7.225752 -5.03069,7.318063 c -12.36399,17.985573 -19.28712,25.903921 -27.64008,31.613381 -2.28569,1.56233 -4.24989,3.08585 -4.36498,3.38561 -0.11495,0.29975 0.14969,1.51392 0.58811,2.69814 3.79255,10.24259 4.88331,13.3862 6.60382,19.03125 6.43091,21.09987 12.05412,47.80838 13.87208,65.88768 l 0.50993,5.0712 -9.01434,-0.081 c -4.95788,-0.0446 -38.23599,-0.17374 -73.95129,-0.28705 z M 92.536319,173.42355 c 1.637377,-0.45522 4.780559,-1.61752 6.984864,-2.58287 l 4.007797,-1.75521 v -12.58913 -12.58913 l -1.43525,0.009 c -2.561443,0.0162 -10.506259,0.70565 -10.731957,0.93136 -0.120719,0.12071 -0.349786,3.17165 -0.509028,6.77985 -0.346423,7.84885 -0.567587,9.36102 -1.417726,9.69339 -1.357503,0.53072 -6.887169,0.87681 -9.4723,0.59284 -5.362681,-0.58907 -9.704428,-3.58468 -12.275949,-8.46984 -1.054785,-2.00381 -1.091413,-2.25994 -1.091413,-7.63176 v -5.55836 l 1.284397,-2.00155 c 3.514283,-5.47655 9.693776,-8.56789 15.978539,-7.99339 2.981268,0.27252 5.56294,1.26061 9.173619,3.51105 2.016371,1.25675 3.1275,1.72721 3.719944,1.57506 1.130488,-0.29033 7.208204,-5.58797 7.899624,-6.88574 0.52802,-0.99112 0.48549,-1.09418 -1.14819,-2.78157 -2.63988,-2.7266 -6.715111,-5.42248 -9.514968,-6.29444 -2.072544,-0.64545 -4.16621,-0.8415 -11.892315,-1.11362 l -9.376933,-0.33027 -3.604004,1.91375 c -5.180196,2.75072 -7.909081,4.68534 -10.836399,7.68238 -4.670267,4.7815 -6.807774,10.73953 -6.794574,18.93909 0.0086,5.27316 0.733652,8.6892 2.684987,12.64804 3.209351,6.51111 11.357858,12.9964 18.621321,14.82049 3.546222,0.89056 15.837167,0.5672 19.745914,-0.5195 z m 55.198211,0.73941 c 3.76818,-0.43934 8.23551,-1.89557 12.15173,-3.96114 l 2.96619,-1.56446 v -12.34644 -12.34644 l -3.34895,0.18662 c -7.84465,0.43718 -8.85888,0.57646 -9.04805,1.24253 -0.0997,0.35123 -0.30048,3.87693 -0.44599,7.83488 -0.27433,7.45907 -0.47336,8.28084 -2.0152,8.32118 -0.35333,0.009 -1.93421,0.16902 -3.51292,0.35505 -3.73082,0.43962 -8.05605,-0.10278 -10.52515,-1.31988 -2.24275,-1.10554 -5.21559,-3.8953 -6.51665,-6.11536 -2.42524,-4.13843 -2.788,-11.20597 -0.78515,-15.29954 1.35558,-2.77085 4.43293,-5.82984 7.35324,-7.30953 2.17291,-1.10096 2.41691,-1.13738 7.60314,-1.13467 5.91836,0.003 5.56203,-0.1006 10.81435,3.1465 2.02715,1.25321 3.02169,1.65534 3.68326,1.4893 1.03254,-0.25915 8.275,-6.96177 8.275,-7.65821 0,-0.55083 -2.50859,-2.99604 -5.26097,-5.12799 -1.10423,-0.85535 -3.42931,-2.12571 -5.16689,-2.82304 l -3.15911,-1.26785 -9.75967,-0.004 -9.75967,-0.004 -2.42477,1.039 c -3.75382,1.60845 -8.52092,4.98766 -11.42897,8.10161 -4.97827,5.33069 -6.62241,9.95039 -6.62241,18.60745 0,8.66735 1.64298,13.27554 6.64168,18.6281 4.33131,4.63788 8.99621,7.58081 14.16441,8.93571 3.09925,0.81251 10.90861,1.00404 16.12752,0.39555 z"
       id="path4837" />
  </g>
</svg>
